<?xml version="1.0" standalone="no"?>
<!DOCTYPE svg PUBLIC "-//W3C//DTD SVG 20010904//EN"
 "http://www.w3.org/TR/2001/REC-SVG-20010904/DTD/svg10.dtd">
<svg version="1.0" xmlns="http://www.w3.org/2000/svg"
 width="500.000000pt" height="500.000000pt" viewBox="0 0 500.000000 500.000000"
 preserveAspectRatio="xMidYMid meet">
<metadata>
Created by potrace 1.14, written by Peter Selinger 2001-2017
</metadata>
<g transform="translate(0.000000,500.000000) scale(0.100000,-0.100000)"
fill="#000000" stroke="none">
<path d="M2044 3846 c-7 -19 3 -140 15 -182 43 -144 139 -286 235 -350 15 -9
26 -19 26 -23 0 -4 -21 -12 -47 -19 -68 -18 -194 -67 -239 -94 -69 -39 -187
-130 -244 -187 -112 -112 -187 -226 -239 -361 -61 -159 -64 -190 -66 -580 0
-195 3 -382 7 -415 23 -173 181 -348 357 -395 64 -17 1202 -20 1293 -4 130 24
251 111 319 229 70 120 71 131 70 560 0 225 -5 404 -11 432 -59 270 -212 501
-431 654 -100 70 -166 103 -279 140 -120 39 -118 38 -104 47 149 96 271 326
269 507 l0 50 -110 -1 c-140 -1 -200 -23 -294 -104 l-67 -57 -54 50 c-87 79
-154 106 -288 113 -97 5 -113 4 -118 -10z"/>
</g>
</svg>
